<svg width="1077" height="540" viewBox="0 0 1077 540" fill="none" xmlns="http://www.w3.org/2000/svg">
<path d="M21.9375 27.4219H49.2188V128.109L149.906 27.4219H188.578L102.656 110.672L190.969 234H154.547L82.2656 130.359L49.2188 162V234H21.9375V27.4219ZM301.438 122.062C314.563 122.062 324.923 119.438 332.516 114.188C340.204 108.938 344.048 99.4688 344.048 85.7812C344.048 71.0625 338.704 61.0312 328.016 55.6875C322.298 52.875 314.657 51.4688 305.094 51.4688H236.751V122.062H301.438ZM208.766 27.4219H304.391C320.141 27.4219 333.126 29.7187 343.344 34.3125C362.751 43.125 372.454 59.3906 372.454 83.1094C372.454 95.4844 369.876 105.609 364.719 113.484C359.657 121.359 352.532 127.688 343.344 132.469C351.407 135.75 357.454 140.062 361.485 145.406C365.61 150.75 367.907 159.422 368.376 171.422L369.36 199.125C369.641 207 370.298 212.859 371.329 216.703C373.016 223.266 376.016 227.484 380.329 229.359V234H346.016C345.079 232.219 344.329 229.922 343.766 227.109C343.204 224.297 342.735 218.859 342.36 210.797L340.673 176.344C340.016 162.844 335.001 153.797 325.626 149.203C320.282 146.672 311.891 145.406 300.454 145.406H236.751V234H208.766V27.4219ZM411.204 27.4219H439.47V234H411.204V27.4219ZM494.674 167.344C495.33 179.062 498.096 188.578 502.971 195.891C512.252 209.578 528.611 216.422 552.049 216.422C562.549 216.422 572.111 214.922 580.736 211.922C597.424 206.109 605.767 195.703 605.767 180.703C605.767 169.453 602.252 161.438 595.221 156.656C588.096 151.969 576.939 147.891 561.752 144.422L533.767 138.094C515.486 133.969 502.549 129.422 494.955 124.453C481.83 115.828 475.267 102.938 475.267 85.7812C475.267 67.2188 481.689 51.9844 494.533 40.0781C507.377 28.1719 525.564 22.2188 549.096 22.2188C570.752 22.2188 589.127 27.4687 604.221 37.9688C619.408 48.375 627.002 65.0625 627.002 88.0312H600.705C599.299 76.9687 596.299 68.4844 591.705 62.5781C583.174 51.7969 568.689 46.4062 548.252 46.4062C531.752 46.4062 519.892 49.875 512.674 56.8125C505.455 63.75 501.846 71.8125 501.846 81C501.846 91.125 506.064 98.5312 514.502 103.219C520.033 106.219 532.549 109.969 552.049 114.469L581.017 121.078C594.986 124.266 605.767 128.625 613.361 134.156C626.486 143.812 633.049 157.828 633.049 176.203C633.049 199.078 624.705 215.438 608.017 225.281C591.424 235.125 572.111 240.047 550.08 240.047C524.392 240.047 504.283 233.484 489.752 220.359C475.221 207.328 468.096 189.656 468.377 167.344H494.674ZM810.174 27.4219V52.0312H740.565V234H712.159V52.0312H642.549V27.4219H810.174ZM833.597 27.4219H861.862V234H833.597V27.4219ZM898.785 27.4219H931.832L1036.18 194.766V27.4219H1062.75V234H1031.39L925.504 66.7969V234H898.785V27.4219Z" fill="black"/>
<path d="M35.5781 297.422L74.5312 465.469L121.219 297.422H151.594L198.281 465.469L237.234 297.422H267.891L213.609 504H184.219L136.547 332.719L88.5938 504H59.2031L5.20312 297.422H35.5781ZM287.938 297.422H438.547V322.734H315.219V385.453H429.266V409.359H315.219V479.391H440.657V504H287.938V297.422ZM468.72 297.422H496.704V479.391H601.329V504H468.72V297.422ZM620.393 297.422H648.377V479.391H753.002V504H620.393V297.422ZM790.346 437.344C791.003 449.062 793.768 458.578 798.643 465.891C807.924 479.578 824.284 486.422 847.721 486.422C858.221 486.422 867.784 484.922 876.409 481.922C893.096 476.109 901.44 465.703 901.44 450.703C901.44 439.453 897.924 431.438 890.893 426.656C883.768 421.969 872.612 417.891 857.424 414.422L829.44 408.094C811.159 403.969 798.221 399.422 790.628 394.453C777.503 385.828 770.94 372.938 770.94 355.781C770.94 337.219 777.362 321.984 790.206 310.078C803.049 298.172 821.237 292.219 844.768 292.219C866.424 292.219 884.799 297.469 899.893 307.969C915.081 318.375 922.674 335.062 922.674 358.031H896.378C894.971 346.969 891.971 338.484 887.378 332.578C878.846 321.797 864.362 316.406 843.924 316.406C827.424 316.406 815.565 319.875 808.346 326.812C801.128 333.75 797.518 341.812 797.518 351C797.518 361.125 801.737 368.531 810.174 373.219C815.706 376.219 828.221 379.969 847.721 384.469L876.69 391.078C890.659 394.266 901.44 398.625 909.034 404.156C922.159 413.812 928.721 427.828 928.721 446.203C928.721 469.078 920.378 485.438 903.69 495.281C887.096 505.125 867.784 510.047 845.753 510.047C820.065 510.047 799.956 503.484 785.424 490.359C770.893 477.328 763.768 459.656 764.049 437.344H790.346Z" fill="black"/>
</svg>
